<?xml version="1.0" encoding="UTF-8" standalone="no"?>
<svg width="18px" height="18px" viewBox="0 0 18 18" version="1.1" xmlns="http://www.w3.org/2000/svg" xmlns:xlink="http://www.w3.org/1999/xlink" xmlns:sketch="http://www.bohemiancoding.com/sketch/ns">
    <!-- Generator: Sketch 3.4.2 (15857) - http://www.bohemiancoding.com/sketch -->
    <title>Slice 1</title>
    <desc>Created with Sketch.</desc>
    <defs></defs>
    <g id="Page-1" stroke="none" stroke-width="1" fill="none" fill-rule="evenodd" sketch:type="MSPage">
        <g id="艺术家" sketch:type="MSLayerGroup" transform="translate(1.000000, 1.000000)" fill="#9B9B9B">
            <path d="M7.5,9 C8.87847548,9 10,10.1132073 10,11.48141 L10,14.51859 C10,15.8867081 8.87847548,17 7.5,17 C6.12152452,17 5,15.8867927 5,14.51859 L5,11.48141 C5,10.1132073 6.12152452,9 7.5,9 Z M7.5,16 C8.32707688,16 9,15.3746122 9,14.6060007 L9,11.3939993 C9,10.6253878 8.32707688,10 7.5,10 C6.67292312,10 6,10.6253878 6,11.3939993 L6,14.6060007 C6,15.374524 6.67292312,16 7.5,16 Z M11,12 C11,12 10.5,12 10.5,11.5 C10.5,9.94712394 9,8.5 7.5,8.5 C6,8.5 4.5,10 4.5,11.5 C4.5,12 4,12 4,12 C4,12 3.5,12 3.5,11.5 C3.5,9.51430311 5.02927341,7.77781397 7,7.50000005 L7,7 L5.49999999,7 C5.18261117,7.01449263 4.99999999,6.75 4.99999999,6.5 C4.99999999,6.25 5.18267424,6 5.49999999,6 L9.5,6 C9.7818655,6 10.0000001,6.25 10.0000001,6.5 C10.0000001,6.75 9.78180244,7.01449263 9.5,7 L8.00000011,7 L8.00000011,7.50000005 C9.94570133,7.77781397 11.571111,9.51451487 11.5,11.5 C11.5,12 11,12 11,12 Z" id="Shape" sketch:type="MSShapeGroup" transform="translate(7.501124, 11.500000) scale(1, -1) translate(-7.501124, -11.500000) "></path>
            <path d="M15,7.52353401 C15,3.36840092 11.6421356,0 7.5,0 C3.35786438,0 0,3.36840092 0,7.52353401 C0,8.85124671 0.343730338,10.1299138 0.987559294,11.2575834 C1.12479913,11.4979597 1.43030795,11.5812192 1.6699323,11.4435487 C1.90955666,11.3058782 1.99255572,10.9994107 1.85531586,10.7590345 C1.29757753,9.78215299 1,8.67517304 1,7.52353401 C1,3.92241865 3.91014912,1.00313787 7.5,1.00313787 C11.0898508,1.00313787 14,3.92241865 14,7.52353401 C14,8.73664728 13.6697114,9.89984354 13.0542303,10.9125537 C12.9104844,11.1490726 12.985092,11.4577037 13.220871,11.6019006 C13.45665,11.7460975 13.7643157,11.6712558 13.9080616,11.434737 C14.6184747,10.265826 15,8.92218662 15,7.52353401 Z M12,7.44957631 C12,4.99214318 9.98528136,3 7.5,3 C5.01471864,3 3,4.99214318 3,7.44957631 C3,8.2346119 3.20630723,8.9910956 3.59265747,9.65811443 C3.72989731,9.89505373 4.03540612,9.97712276 4.27503047,9.84142071 C4.51465484,9.70571868 4.5976539,9.40363317 4.46041406,9.16669387 C4.16015442,8.64830716 4,8.06105579 4,7.44957631 C4,5.53823946 5.5670034,3.98879474 7.5,3.98879474 C9.4329966,3.98879474 11,5.53823946 11,7.44957631 C11,8.09368231 10.8222429,8.71074852 10.490882,9.24817279 C10.3471361,9.48130982 10.4217438,9.78552805 10.6575228,9.9276632 C10.8933017,10.0697983 11.2009674,9.99602673 11.3447133,9.7628897 C11.7710063,9.07149806 12,8.27656875 12,7.44957631 Z" id="Shape" sketch:type="MSShapeGroup"></path>
        </g>
    </g>
</svg>