<svg viewBox="0 0 22 25" xmlns="http://www.w3.org/2000/svg" xmlns:xlink="http://www.w3.org/1999/xlink"><title>icon-highscore-big</title><defs><path d="M1.618 0h5.764a1 1 0 0 1 .894.553l4 8A1 1 0 0 1 11.382 10H5.618a1 1 0 0 1-.894-.553l-4-8A1 1 0 0 1 1.618 0z" id="b"/><filter x="-10.6%" y="-12.5%" width="129.8%" height="135%" filterUnits="objectBoundingBox" id="a"><feOffset dx=".5" dy=".5" in="SourceAlpha" result="shadowOffsetOuter1"/><feGaussianBlur stdDeviation=".5" in="shadowOffsetOuter1" result="shadowBlurOuter1"/><feColorMatrix values="0 0 0 0 0 0 0 0 0 0 0 0 0 0 0 0 0 0 0.216570426 0" in="shadowBlurOuter1"/></filter><path d="M17.382 0a1 1 0 0 1 .894 1.447l-4 8a1 1 0 0 1-.894.553H7.618a1 1 0 0 1-.894-1.447l4-8A1 1 0 0 1 11.618 0h5.764z" id="d"/><filter x="-10.6%" y="-12.5%" width="129.8%" height="135%" filterUnits="objectBoundingBox" id="c"><feOffset dx=".5" dy=".5" in="SourceAlpha" result="shadowOffsetOuter1"/><feGaussianBlur stdDeviation=".5" in="shadowOffsetOuter1" result="shadowBlurOuter1"/><feColorMatrix values="0 0 0 0 0 0 0 0 0 0 0 0 0 0 0 0 0 0 0.216570426 0" in="shadowBlurOuter1"/></filter><path d="M9.5 22C4.26 22 0 17.74 0 12.5S4.26 3 9.5 3 19 7.26 19 12.5 14.74 22 9.5 22z" id="f"/><filter x="-6.6%" y="-6.6%" width="118.4%" height="118.4%" filterUnits="objectBoundingBox" id="e"><feOffset dx=".5" dy=".5" in="SourceAlpha" result="shadowOffsetOuter1"/><feGaussianBlur stdDeviation=".5" in="shadowOffsetOuter1" result="shadowBlurOuter1"/><feColorMatrix values="0 0 0 0 0 0 0 0 0 0 0 0 0 0 0 0 0 0 0.216570426 0" in="shadowBlurOuter1"/></filter><path id="g" d="M6.929 13.88l3.643-3.645.198.363 2.772.412-3.836 3.836-.354-.168L6.57 16z"/></defs><g transform="translate(1 1)" fill="none" fill-rule="evenodd"><use fill="#000" filter="url(#a)" xlink:href="#b"/><use fill="#FFA70F" xlink:href="#b"/><use fill="#000" filter="url(#c)" xlink:href="#d"/><use fill="#FFA70F" xlink:href="#d"/><g fill-rule="nonzero"><use fill="#000" filter="url(#e)" xlink:href="#f"/><use fill="#FFA70F" fill-rule="evenodd" xlink:href="#f"/></g><path d="M9.5 20c4.135 0 7.5-3.364 7.5-7.5S13.635 5 9.5 5C5.364 5 2 8.364 2 12.5S5.364 20 9.5 20z" fill="#FFE100"/><path d="M9.5 20.5c-4.412 0-8-3.588-8-8s3.588-8 8-8c4.411 0 8 3.588 8 8s-3.589 8-8 8zm0-1c3.86 0 7-3.14 7-7s-3.14-7-7-7-7 3.14-7 7 3.14 7 7 7z" fill="#FFF" fill-rule="nonzero"/><path d="M9.352 14.678L12.133 16l-.486-2.88 2.205-2.064-3.082-.458L9.352 8l-1.419 2.598-3.081.458 2.205 2.063L6.57 16l2.78-1.322zm0 1.66l-2.137 1.017c-1.096.52-2.325-.408-2.123-1.605l.352-2.086-1.617-1.513c-.917-.858-.437-2.394.804-2.579l2.344-.348 1.06-1.943c.569-1.041 2.065-1.041 2.633 0l1.061 1.943 2.343.348c1.242.185 1.721 1.721.805 2.579l-1.617 1.513.352 2.086c.202 1.197-1.027 2.126-2.123 1.605l-2.137-1.016z" fill="#FFA70F" fill-rule="nonzero"/><path d="M9.352 14.678L12.133 16l-.486-2.88 2.205-2.064-3.082-.458L9.352 8l-1.419 2.598-3.081.458 2.205 2.063L6.57 16l2.78-1.322zm0 .553l-2.567 1.22a.5.5 0 0 1-.707-.534l.441-2.616-2.009-1.88a.5.5 0 0 1 .268-.86l2.836-.421 1.299-2.38a.5.5 0 0 1 .878 0l1.299 2.38 2.835.421a.5.5 0 0 1 .268.86l-2.008 1.88.441 2.616a.5.5 0 0 1-.708.535l-2.566-1.22z" fill="#FFF" fill-rule="nonzero"/><path fill="#FFF978" d="M7.024 13.312l.033-.193-.62-.58 3.488-3.49.481.882z"/><use fill="#FFF978" xlink:href="#g"/></g></svg>